# xmcd CD database file
#
# Track frame offsets:
#	150
#	32412
#	56182
#	86900
#	113017
#	140395
#	162425
#	202837
#	223417
#
# Disc length: 3349 seconds
#
# Revision: 0
# Processed by: cddbd v1.5.1PL0 Copyright (c) Steve Scherf et al.
# Submitted via: CDex 1.51
#
DISCID=800d1309
DTITLE=Karl-Martin Almqvist - Full Circle
DYEAR=2004
DGENRE=Jazz
TTITLE0=Do we dance
TTITLE1=Full circle
TTITLE2=In between
TTITLE3=Katten Burlesk
TTITLE4=Slow flow
TTITLE5=Spantis
TTITLE6=Double dare
TTITLE7=Indi
TTITLE8=You must believe in spring
EXTD=YEAR: 2004
EXTT0=
EXTT1=
EXTT2=
EXTT3=
EXTT4=
EXTT5=
EXTT6=
EXTT7=
EXTT8=
PLAYORDER=
